{
  "accessors": [
    {
      "bufferView": 2,
      "componentType": 5126,
      "count": 8943,
      "max": [
        158.74998474121094,
        126.99998474121094,
        317.5
      ],
      "min": [
        -158.74998474121094,
        -126.99995422363281,
        3.337860107421875e-05
      ],
      "type": "VEC3"
    },
    {
      "bufferView": 2,
      "byteOffset": 107316,
      "componentType": 5126,
      "count": 8943,
      "max": [
        1.0,
        1.0,
        1.0
      ],
      "min": [
        -1.0,
        -1.0,
        -1.0
      ],
      "type": "VEC3"
    },
    {
      "bufferView": 1,
      "componentType": 5126,
      "count": 8943,
      "max": [
        0.999500036239624,
        0.9944707751274109
      ],
      "min": [
        0.0005000000237487257,
        0.0005000000237487257
      ],
      "type": "VEC2"
    },
    {
      "bufferView": 0,
      "componentType": 5125,
      "count": 36054,
      "type": "SCALAR"
    }
  ],
  "asset": {
    "extras": {
      "author": "Abdur Razzak Sawon (https://sketchfab.com/md.abdur.razzak.sawon)",
      "license": "CC-BY-4.0 (http://creativecommons.org/licenses/by/4.0/)",
      "source": "https://sketchfab.com/3d-models/andre-black-wall-sconce-light-36eeff34ad9941129bc99c5666d022db",
      "title": "Andre Black Wall Sconce Light"
    },
    "generator": "Sketchfab-16.16.0",
    "version": "2.0"
  },
  "bufferViews": [
    {
      "buffer": 0,
      "byteLength": 144216,
      "name": "floatBufferViews",
      "target": 34963
    },
    {
      "buffer": 0,
      "byteLength": 71544,
      "byteOffset": 144216,
      "byteStride": 8,
      "name": "floatBufferViews",
      "target": 34962
    },
    {
      "buffer": 0,
      "byteLength": 214632,
      "byteOffset": 215760,
      "byteStride": 12,
      "name": "floatBufferViews",
      "target": 34962
    }
  ],
  "buffers": [
    {
      "byteLength": 430392,
      "uri": "scene.bin"
    }
  ],
  "images": [
    {
      "uri": "textures/AndreBlackWalSconceLight_baseColor.png"
    },
    {
      "uri": "textures/AndreBlackWalSconceLight_metallicRoughness.png"
    }
  ],
  "materials": [
    {
      "doubleSided": true,
      "name": "AndreBlackWalSconceLight",
      "pbrMetallicRoughness": {
        "baseColorTexture": {
          "index": 0
        },
        "metallicRoughnessTexture": {
          "index": 1
        }
      }
    }
  ],
  "meshes": [
    {
      "name": "AndreBlackWalSconceLight_AndreBlackWalSconceLight_0",
      "primitives": [
        {
          "attributes": {
            "NORMAL": 1,
            "POSITION": 0,
            "TEXCOORD_0": 2
          },
          "indices": 3,
          "material": 0,
          "mode": 4
        }
      ]
    }
  ],
  "nodes": [
    {
      "children": [
        1
      ],
      "matrix": [
        1.0,
        0.0,
        0.0,
        0.0,
        0.0,
        -1.0,
        -6.661338147750939e-16,
        0.0,
        0.0,
        6.661338147750939e-16,
        -1.0,
        0.0,
        0.0,
        0.0,
        0.0,
        1.0
      ],
      "name": "Sketchfab_model"
    },
    {
      "children": [
        2
      ],
      "matrix": [
        0.0010000000474974513,
        0.0,
        0.0,
        0.0,
        0.0,
        -0.0010000000474974513,
        0.0,
        0.0,
        0.0,
        0.0,
        -0.0010000000474974513,
        0.0,
        0.0,
        0.0,
        0.0,
        1.0
      ],
      "name": "Andre_Black_Wall_Sconce_Ligh-128411.fbx"
    },
    {
      "children": [
        3
      ],
      "name": "RootNode"
    },
    {
      "children": [
        4
      ],
      "name": "Dummy001"
    },
    {
      "children": [
        5
      ],
      "name": "AndreBlackWalSconceLight"
    },
    {
      "mesh": 0,
      "name": "AndreBlackWalSconceLight_AndreBlackWalSconceLight_0"
    }
  ],
  "samplers": [
    {
      "magFilter": 9729,
      "minFilter": 9987,
      "wrapS": 10497,
      "wrapT": 10497
    }
  ],
  "scene": 0,
  "scenes": [
    {
      "name": "Sketchfab_Scene",
      "nodes": [
        0
      ]
    }
  ],
  "textures": [
    {
      "sampler": 0,
      "source": 0
    },
    {
      "sampler": 0,
      "source": 1
    }
  ]
}
